<svg xmlns="http://www.w3.org/2000/svg" width="14" height="18" viewBox="0 0 14 18" fill="none">
    <path d="M12.5194 6.23743L12.2381 14.7502C12.2142 15.4792 11.907 16.1703 11.3819 16.6766C10.8568 17.1829 10.1551 17.4647 9.42562 17.4621H4.08187C3.35289 17.4647 2.65155 17.1833 2.12652 16.6776C1.60149 16.1719 1.29405 15.4815 1.26937 14.753L0.988125 6.23743C0.981971 6.05095 1.05015 5.86966 1.17766 5.73345C1.30517 5.59724 1.48157 5.51725 1.66805 5.5111C1.85453 5.50495 2.03581 5.57312 2.17203 5.70063C2.30824 5.82815 2.38822 6.00454 2.39438 6.19102L2.67562 14.7059C2.68963 15.0694 2.84395 15.4133 3.10617 15.6654C3.36839 15.9175 3.71811 16.0582 4.08187 16.058H9.42562C9.78986 16.0582 10.14 15.9171 10.4023 15.6644C10.6646 15.4117 10.8186 15.067 10.8319 14.7031L11.1131 6.19102C11.1193 6.00454 11.1993 5.82815 11.3355 5.70063C11.4717 5.57312 11.653 5.50495 11.8395 5.5111C12.0259 5.51725 12.2023 5.59724 12.3298 5.73345C12.4574 5.86966 12.5255 6.05095 12.5194 6.23743ZM13.4496 3.40454C13.4496 3.59102 13.3755 3.76986 13.2437 3.90172C13.1118 4.03358 12.933 4.10766 12.7465 4.10766H0.761719C0.575238 4.10766 0.396396 4.03358 0.264534 3.90172C0.132673 3.76986 0.0585938 3.59102 0.0585938 3.40454C0.0585938 3.21806 0.132673 3.03922 0.264534 2.90735C0.396396 2.77549 0.575238 2.70141 0.761719 2.70141H2.94141C3.16419 2.70201 3.37923 2.6197 3.54467 2.4705C3.71012 2.3213 3.81414 2.11589 3.83648 1.89423C3.88837 1.37425 4.13198 0.892224 4.51985 0.542051C4.90772 0.191879 5.41206 -0.00135233 5.93461 7.12468e-06H7.57289C8.09544 -0.00135233 8.59978 0.191879 8.98765 0.542051C9.37552 0.892224 9.61913 1.37425 9.67102 1.89423C9.69336 2.11589 9.79738 2.3213 9.96283 2.4705C10.1283 2.6197 10.3433 2.70201 10.5661 2.70141H12.7458C12.9323 2.70141 13.1111 2.77549 13.243 2.90735C13.3748 3.03922 13.4489 3.21806 13.4489 3.40454H13.4496ZM5.05711 2.70141H8.4518C8.3594 2.4903 8.29897 2.26659 8.2725 2.03766C8.25508 1.86435 8.17395 1.70367 8.04483 1.58676C7.9157 1.46984 7.74778 1.40502 7.57359 1.40485H5.93531C5.76113 1.40502 5.5932 1.46984 5.46408 1.58676C5.33496 1.70367 5.25382 1.86435 5.23641 2.03766C5.20971 2.26663 5.14975 2.49033 5.05711 2.70141ZM5.76516 13.3545V7.36735C5.76516 7.18087 5.69108 7.00203 5.55922 6.87017C5.42735 6.73831 5.24851 6.66423 5.06203 6.66423C4.87555 6.66423 4.69671 6.73831 4.56485 6.87017C4.43299 7.00203 4.35891 7.18087 4.35891 7.36735V13.3573C4.35891 13.5438 4.43299 13.7226 4.56485 13.8545C4.69671 13.9863 4.87555 14.0604 5.06203 14.0604C5.24851 14.0604 5.42735 13.9863 5.55922 13.8545C5.69108 13.7226 5.76516 13.5438 5.76516 13.3573V13.3545ZM9.15 13.3545V7.36735C9.15 7.18087 9.07592 7.00203 8.94406 6.87017C8.8122 6.73831 8.63336 6.66423 8.44688 6.66423C8.2604 6.66423 8.08155 6.73831 7.94969 6.87017C7.81783 7.00203 7.74375 7.18087 7.74375 7.36735V13.3573C7.74375 13.5438 7.81783 13.7226 7.94969 13.8545C8.08155 13.9863 8.2604 14.0604 8.44688 14.0604C8.63336 14.0604 8.8122 13.9863 8.94406 13.8545C9.07592 13.7226 9.15 13.5438 9.15 13.3573V13.3545Z" fill="#EA1111"/>
  </svg>