<svg width="42" height="43" viewBox="0 0 42 43" fill="none" xmlns="http://www.w3.org/2000/svg">
<path d="M32.1698 34.4444V9.55556C32.1698 7.6 30.6302 6 28.7484 6H4.79873C2.91697 6 1.37735 7.6 1.37735 9.55556V34.4444C1.37735 36.4 2.91697 38 4.79873 38H28.7484C30.6302 38 32.1698 36.4 32.1698 34.4444ZM10.7862 24.6667L15.0629 30.0178L21.0503 22L28.7484 32.6667H4.79873L10.7862 24.6667Z" fill="#1AACAC"/>
<path d="M34.3737 13.9745L33.6445 19.9063C33.6445 19.9063 29.8431 19.4218 29.8264 19.3994L30.5556 13.4676L24.8286 12.7073C24.8286 12.7073 25.333 8.76191 25.3164 8.73954L31.0434 9.49988L31.7751 3.54825L35.5931 4.05514L34.8614 10.0068L40.5885 10.7671L40.1007 14.7349L34.3737 13.9745ZM27.6711 21.1497L28.4027 15.1981L22.6757 14.4377L23.4074 8.48609L8.13525 6.45852C6.03534 6.17973 4.09773 7.73712 3.82946 9.91938L0.90287 33.7259C0.634599 35.9082 2.13322 37.9218 4.23313 38.2005L27.1413 41.2419C29.2412 41.5207 31.1788 39.9633 31.4471 37.781L33.3981 21.91L27.6711 21.1497ZM4.7209 34.2328L11.4235 27.0576L14.5098 33.5161L21.2124 26.341L27.6291 37.2741L4.7209 34.2328Z" fill="#362FD9"/>
</svg>
