<svg width="321" height="38" viewBox="0 0 321 38" fill="none" xmlns="http://www.w3.org/2000/svg">
<path d="M0.64325 2.05H9.49325V29.55H24.6933V37H0.64325V2.05ZM31.6658 9.8C30.3324 9.8 29.2158 9.36666 28.3157 8.5C27.4157 7.63333 26.9657 6.53333 26.9657 5.2C26.9657 3.9 27.4157 2.81667 28.3157 1.95C29.2158 1.05 30.3324 0.599998 31.6658 0.599998C32.9658 0.599998 34.0658 1.05 34.9658 1.95C35.8991 2.81667 36.3658 3.9 36.3658 5.2C36.3658 6.5 35.8991 7.6 34.9658 8.5C34.0658 9.36666 32.9658 9.8 31.6658 9.8ZM27.2657 13H36.0658V37H27.2657V13ZM57.6418 37.75C54.2084 37.75 51.3751 36.7 49.1418 34.6V37H40.6418V0.0499989H49.4418V14.95C50.4084 14.1167 51.6084 13.4667 53.0418 13C54.5084 12.5 56.0418 12.25 57.6418 12.25C60.1751 12.25 62.3918 12.7833 64.2918 13.85C66.2251 14.9167 67.7251 16.4333 68.7918 18.4C69.8584 20.3333 70.3918 22.55 70.3918 25.05C70.3918 27.5833 69.8584 29.8167 68.7918 31.75C67.7251 33.65 66.2251 35.1333 64.2918 36.2C62.3584 37.2333 60.1418 37.75 57.6418 37.75ZM55.3418 30.95C57.1418 30.95 58.5918 30.4333 59.6918 29.4C60.7918 28.3333 61.3418 26.8833 61.3418 25.05C61.3418 23.2167 60.7918 21.7667 59.6918 20.7C58.5918 19.6333 57.1418 19.1 55.3418 19.1C54.0084 19.1 52.8084 19.45 51.7418 20.15C50.6751 20.8167 49.9084 21.7333 49.4418 22.9V27.15C49.9084 28.3167 50.6751 29.25 51.7418 29.95C52.8084 30.6167 54.0084 30.95 55.3418 30.95ZM73.6537 13H82.1537V16C83.0871 14.9333 84.4037 14.1167 86.1037 13.55C87.8037 12.95 89.6871 12.65 91.7537 12.65V19.4C89.5537 19.4 87.6037 19.7167 85.9037 20.35C84.2371 20.9833 83.0871 21.9333 82.4537 23.2V37H73.6537V13ZM100.823 37.75C97.8231 37.75 95.3898 37.0333 93.5231 35.6C91.6898 34.1333 90.7731 32.1 90.7731 29.5C90.7731 26.8 91.6564 24.7333 93.4231 23.3C95.2231 21.8333 97.7898 21.1 101.123 21.1C102.423 21.1 103.723 21.25 105.023 21.55C106.323 21.8167 107.44 22.1833 108.373 22.65V22.15C108.373 19.5833 106.273 18.3 102.073 18.3C99.1398 18.3 96.4564 18.8667 94.0231 20V13.95C95.0898 13.45 96.4898 13.05 98.2231 12.75C99.9564 12.4167 101.756 12.25 103.623 12.25C108.09 12.25 111.456 13.15 113.723 14.95C116.023 16.7167 117.173 19.2 117.173 22.4V37H108.923V34.95C108.023 35.8167 106.89 36.5 105.523 37C104.156 37.5 102.59 37.75 100.823 37.75ZM103.423 32.35C104.456 32.35 105.423 32.15 106.323 31.75C107.223 31.3167 107.906 30.7667 108.373 30.1V28C106.94 27.0333 105.306 26.55 103.473 26.55C102.306 26.55 101.406 26.8 100.773 27.3C100.14 27.8 99.8231 28.5333 99.8231 29.5C99.8231 30.4 100.123 31.1 100.723 31.6C101.356 32.1 102.256 32.35 103.423 32.35Z" fill="#2C2D41"/>
<path d="M139.222 37.75C135.422 37.75 132.072 37.0167 129.172 35.55C126.305 34.0833 124.088 31.9833 122.522 29.25C120.955 26.4833 120.172 23.25 120.172 19.55C120.172 15.85 120.955 12.6333 122.522 9.9C124.088 7.13333 126.305 5.01667 129.172 3.55C132.072 2.05 135.422 1.3 139.222 1.3C141.722 1.3 143.955 1.55 145.922 2.05C147.888 2.55 149.705 3.33333 151.372 4.4V12.8C149.905 11.6333 148.238 10.7833 146.372 10.25C144.538 9.71667 142.422 9.45 140.022 9.45C136.588 9.45 133.938 10.35 132.072 12.15C130.205 13.9167 129.272 16.3833 129.272 19.55C129.272 22.7167 130.205 25.2 132.072 27C133.972 28.8 136.622 29.7 140.022 29.7C142.422 29.7 144.572 29.4167 146.472 28.85C148.372 28.2833 150.138 27.3833 151.772 26.15V34.5C148.605 36.6667 144.422 37.75 139.222 37.75ZM167.544 37.75C164.578 37.75 161.978 37.2167 159.744 36.15C157.511 35.05 155.778 33.55 154.544 31.65C153.344 29.7167 152.744 27.5 152.744 25C152.744 22.5 153.344 20.3 154.544 18.4C155.778 16.4667 157.511 14.9667 159.744 13.9C161.978 12.8 164.578 12.25 167.544 12.25C170.511 12.25 173.111 12.8 175.344 13.9C177.578 14.9667 179.294 16.4667 180.494 18.4C181.728 20.3 182.344 22.5 182.344 25C182.344 27.5 181.728 29.7167 180.494 31.65C179.294 33.55 177.578 35.05 175.344 36.15C173.111 37.2167 170.511 37.75 167.544 37.75ZM167.544 30.9C169.311 30.9 170.711 30.3833 171.744 29.35C172.811 28.2833 173.344 26.8333 173.344 25C173.344 23.1667 172.811 21.7333 171.744 20.7C170.711 19.6333 169.311 19.1 167.544 19.1C165.778 19.1 164.361 19.6333 163.294 20.7C162.261 21.7333 161.744 23.1667 161.744 25C161.744 26.8333 162.261 28.2833 163.294 29.35C164.361 30.3833 165.778 30.9 167.544 30.9ZM185.584 13H194.084V15.65C195.118 14.5167 196.368 13.6667 197.834 13.1C199.301 12.5333 200.834 12.25 202.434 12.25C205.801 12.25 208.284 13.1333 209.884 14.9C211.518 16.6333 212.334 19 212.334 22V37H203.534V23.15C203.534 20.45 202.301 19.1 199.834 19.1C198.701 19.1 197.668 19.3667 196.734 19.9C195.801 20.4 195.018 21.1833 194.384 22.25V37H185.584V13ZM216.35 13H224.85V15.65C225.884 14.5167 227.134 13.6667 228.6 13.1C230.067 12.5333 231.6 12.25 233.2 12.25C236.567 12.25 239.05 13.1333 240.65 14.9C242.284 16.6333 243.1 19 243.1 22V37H234.3V23.15C234.3 20.45 233.067 19.1 230.6 19.1C229.467 19.1 228.434 19.3667 227.5 19.9C226.567 20.4 225.784 21.1833 225.15 22.25V37H216.35V13ZM261.216 37.75C256.516 37.75 252.816 36.65 250.116 34.45C247.449 32.25 246.116 29.1333 246.116 25.1C246.116 21.1333 247.299 18 249.666 15.7C252.066 13.4 255.516 12.25 260.016 12.25C262.883 12.25 265.333 12.8 267.366 13.9C269.433 14.9667 270.983 16.45 272.016 18.35C273.083 20.2167 273.616 22.3333 273.616 24.7V27.95H254.466C254.799 29.2833 255.633 30.25 256.966 30.85C258.299 31.45 260.116 31.75 262.416 31.75C263.983 31.75 265.583 31.6167 267.216 31.35C268.883 31.0833 270.316 30.7167 271.516 30.25V36.05C270.283 36.55 268.733 36.95 266.866 37.25C265.033 37.5833 263.149 37.75 261.216 37.75ZM265.316 22.45C265.183 21.15 264.649 20.1333 263.716 19.4C262.783 18.6667 261.499 18.3 259.866 18.3C258.266 18.3 256.999 18.6833 256.066 19.45C255.133 20.1833 254.599 21.1833 254.466 22.45H265.316ZM290.157 37.75C285.757 37.75 282.273 36.65 279.707 34.45C277.14 32.25 275.857 29.1167 275.857 25.05C275.857 20.9833 277.14 17.8333 279.707 15.6C282.307 13.3667 285.807 12.25 290.207 12.25C292.173 12.25 294.007 12.45 295.707 12.85C297.44 13.2167 298.873 13.75 300.007 14.45V21.3C297.973 19.8333 295.29 19.1 291.957 19.1C289.823 19.1 288.107 19.6 286.807 20.6C285.54 21.5667 284.907 23.05 284.907 25.05C284.907 27.0833 285.54 28.5833 286.807 29.55C288.073 30.4833 289.773 30.95 291.907 30.95C295.14 30.95 297.94 30.1833 300.307 28.65V35.45C297.773 36.9833 294.39 37.75 290.157 37.75ZM313.97 37.75C311.003 37.75 308.753 36.9333 307.22 35.3C305.72 33.6333 304.97 31.3667 304.97 28.5V19.1H301.57V13H304.97V5.8H313.77V13H319.27V19.1H313.77V27.3C313.77 28.6 314.003 29.5333 314.47 30.1C314.97 30.6667 315.836 30.95 317.07 30.95C318.17 30.95 319.27 30.65 320.37 30.05V36.6C319.503 37 318.57 37.2833 317.57 37.45C316.603 37.65 315.403 37.75 313.97 37.75Z" fill="#1578DA"/>
</svg>
